<?xml version="1.0" encoding="UTF-8" standalone="no"?>
<!-- Created with Inkscape (http://www.inkscape.org/) -->

<svg
   xmlns:dc="http://purl.org/dc/elements/1.1/"
   xmlns:cc="http://creativecommons.org/ns#"
   xmlns:rdf="http://www.w3.org/1999/02/22-rdf-syntax-ns#"
   xmlns:svg="http://www.w3.org/2000/svg"
   xmlns="http://www.w3.org/2000/svg"
   xmlns:sodipodi="http://sodipodi.sourceforge.net/DTD/sodipodi-0.dtd"
   xmlns:inkscape="http://www.inkscape.org/namespaces/inkscape"
   width="128"
   height="128"
   viewBox="0 0 128 128"
   id="svg2"
   version="1.1"
   inkscape:version="0.91 r13725"
   sodipodi:docname="locked.svg"
   inkscape:export-filename="locked.png"
   inkscape:export-xdpi="90"
   inkscape:export-ydpi="90">
  <defs
     id="defs4">
    <filter
       inkscape:collect="always"
       style="color-interpolation-filters:sRGB"
       id="filter5122"
       x="-0.20137731"
       width="1.4027546"
       y="-0.17280453"
       height="1.3456091">
      <feGaussianBlur
         inkscape:collect="always"
         stdDeviation="9.1229855"
         id="feGaussianBlur5124" />
    </filter>
  </defs>
  <sodipodi:namedview
     id="base"
     pagecolor="#ffffff"
     bordercolor="#666666"
     borderopacity="1.0"
     inkscape:pageopacity="0.0"
     inkscape:pageshadow="2"
     inkscape:zoom="2.8284271"
     inkscape:cx="6.8295771"
     inkscape:cy="25.58105"
     inkscape:document-units="px"
     inkscape:current-layer="layer1"
     showgrid="true"
     units="px"
     inkscape:window-width="1920"
     inkscape:window-height="1009"
     inkscape:window-x="0"
     inkscape:window-y="0"
     inkscape:window-maximized="1" />
  <metadata
     id="metadata7">
    <rdf:RDF>
      <cc:Work
         rdf:about="">
        <dc:format>image/svg+xml</dc:format>
        <dc:type
           rdf:resource="http://purl.org/dc/dcmitype/StillImage" />
        <dc:title></dc:title>
      </cc:Work>
    </rdf:RDF>
  </metadata>
  <g
     inkscape:label="Layer 1"
     inkscape:groupmode="layer"
     id="layer1"
     transform="translate(0,-924.3622)">
    <rect
       style="opacity:0.87;fill:#ffffff;fill-opacity:1;stroke:none;stroke-width:0.5;stroke-linecap:round;stroke-linejoin:round;stroke-miterlimit:4;stroke-dasharray:none;stroke-opacity:1;filter:url(#filter5122)"
       id="rect5099"
       width="108.72707"
       height="126.70481"
       x="38.997791"
       y="947.09283"
       ry="15.875"
       rx="15.875" />
    <path
       style="opacity:1;fill:#000000;fill-opacity:1;stroke:none;stroke-width:0.5;stroke-linecap:round;stroke-linejoin:round;stroke-miterlimit:4;stroke-dasharray:none;stroke-opacity:1"
       d="m 92.970703,973.6093 c -6.888888,0 -12.496469,2.4292 -16.531249,6.0156 -4.034783,3.5864 -6.564834,8.1677 -8.218751,12.5781 -2.418885,6.4503 -2.888801,11.5668 -3.046875,14.5 l -3.421875,0 0,40.5781 63.218747,0 0,-40.5781 -4.20313,0 c -0.15812,-2.9332 -0.62815,-8.0497 -3.04687,-14.5 -1.65392,-4.4104 -4.18397,-8.9917 -8.21875,-12.5781 -4.03478,-3.5864 -9.642359,-6.0156 -16.531247,-6.0156 z m 0,8 c 5.111112,0 8.503537,1.5707 11.218757,3.9843 2.71521,2.4136 4.68516,5.8323 6.03124,9.4219 1.84328,4.9155 2.31526,9.0068 2.51563,11.6875 l -39.531252,0 c 0.200369,-2.6807 0.672357,-6.772 2.515625,-11.6875 1.346084,-3.5896 3.316033,-7.0083 6.03125,-9.4219 2.715218,-2.4136 6.107638,-3.9843 11.21875,-3.9843 z m 0.39064,33.2343 c 4.41828,0 7.999997,3.5816 7.999997,8 -0.002,2.8552 -1.526741,5.4939 -3.999997,6.9219 0,0.4888 0.0028,0.9186 0,1.3906 0,4.4184 -1.790864,8 -4,8 -2.209136,0 -4,-3.5816 -4,-8 l 0,-1.3906 c -2.473248,-1.428 -3.997744,-4.0667 -4,-6.9219 0,-4.4184 3.58172,-8 8,-8 z"
       id="rect3338"
       inkscape:connector-curvature="0" />
  </g>
</svg>
