<?xml version="1.0" encoding="UTF-8" standalone="no"?>
<!-- Created with Inkscape (http://www.inkscape.org/) -->

<svg
   xmlns:dc="http://purl.org/dc/elements/1.1/"
   xmlns:cc="http://creativecommons.org/ns#"
   xmlns:rdf="http://www.w3.org/1999/02/22-rdf-syntax-ns#"
   xmlns:svg="http://www.w3.org/2000/svg"
   xmlns="http://www.w3.org/2000/svg"
   xmlns:xlink="http://www.w3.org/1999/xlink"
   xmlns:sodipodi="http://sodipodi.sourceforge.net/DTD/sodipodi-0.dtd"
   xmlns:inkscape="http://www.inkscape.org/namespaces/inkscape"
   version="1.0"
   width="512"
   height="512"
   id="svg1352"
   sodipodi:version="0.32"
   inkscape:version="0.48.5 r10040"
   sodipodi:docname="logo_full.svg">
  <metadata
     id="metadata1707">
    <rdf:RDF>
      <cc:Work
         rdf:about="">
        <dc:format>image/svg+xml</dc:format>
        <dc:type
           rdf:resource="http://purl.org/dc/dcmitype/StillImage" />
        <dc:title />
      </cc:Work>
    </rdf:RDF>
  </metadata>
  <sodipodi:namedview
     inkscape:window-height="849"
     inkscape:window-width="1600"
     inkscape:pageshadow="2"
     inkscape:pageopacity="0.0"
     borderopacity="1.0"
     bordercolor="#666666"
     pagecolor="#ffffff"
     id="base"
     inkscape:zoom="1"
     inkscape:cx="244.31459"
     inkscape:cy="246.49848"
     inkscape:window-x="0"
     inkscape:window-y="0"
     inkscape:current-layer="layer1"
     showgrid="false"
     inkscape:window-maximized="1" />
  <defs
     id="defs1354">
    <linearGradient
       id="linearGradient24674">
      <stop
         style="stop-color:black;stop-opacity:1"
         offset="0"
         id="stop24676" />
      <stop
         style="stop-color:black;stop-opacity:0"
         offset="1"
         id="stop24678" />
    </linearGradient>
    <linearGradient
       id="linearGradient22734">
      <stop
         style="stop-color:#991414;stop-opacity:1"
         offset="0"
         id="stop22736" />
      <stop
         style="stop-color:#4c1461;stop-opacity:1"
         offset="0.64814812"
         id="stop22742" />
      <stop
         style="stop-color:#231287;stop-opacity:1"
         offset="1"
         id="stop22738" />
    </linearGradient>
    <linearGradient
       id="linearGradient11270">
      <stop
         style="stop-color:black;stop-opacity:1"
         offset="0"
         id="stop11272" />
      <stop
         style="stop-color:black;stop-opacity:0"
         offset="1"
         id="stop11274" />
    </linearGradient>
    <linearGradient
       id="linearGradient9512">
      <stop
         style="stop-color:#7bedff;stop-opacity:1"
         offset="0"
         id="stop9522" />
      <stop
         style="stop-color:#7beeff;stop-opacity:1"
         offset="0.7037037"
         id="stop13024" />
      <stop
         style="stop-color:#0078fd;stop-opacity:1"
         offset="1"
         id="stop9516" />
    </linearGradient>
    <linearGradient
       id="linearGradient9500">
      <stop
         style="stop-color:#ffeb42;stop-opacity:0.49803922"
         offset="0"
         id="stop9508" />
      <stop
         style="stop-color:#ffeb42;stop-opacity:0"
         offset="1"
         id="stop9504" />
    </linearGradient>
    <linearGradient
       id="linearGradient9482">
      <stop
         style="stop-color:#f706ff;stop-opacity:1"
         offset="0"
         id="stop9484" />
      <stop
         style="stop-color:#f706ff;stop-opacity:0.49803922"
         offset="0.87037039"
         id="stop9496" />
      <stop
         style="stop-color:#f706ff;stop-opacity:0"
         offset="1"
         id="stop9486" />
    </linearGradient>
    <radialGradient
       cx="257.5"
       cy="257"
       r="239"
       fx="257.5"
       fy="257"
       id="radialGradient9520"
       xlink:href="#linearGradient9512"
       gradientUnits="userSpaceOnUse"
       gradientTransform="matrix(1,0,0,0.98954,0,2.688285)" />
    <linearGradient
       x1="18.5"
       y1="257"
       x2="496.5"
       y2="257"
       id="linearGradient11276"
       xlink:href="#linearGradient11270"
       gradientUnits="userSpaceOnUse" />
    <linearGradient
       x1="-520.38086"
       y1="147.0589"
       x2="-282.85645"
       y2="147.0589"
       id="linearGradient23795"
       xlink:href="#linearGradient22734"
       gradientUnits="userSpaceOnUse"
       gradientTransform="matrix(0.9333026,0,0,0.93264192,-37.878612,10.46685)" />
    <linearGradient
       x1="-520.38086"
       y1="147.0589"
       x2="-449.84863"
       y2="147.0589"
       id="linearGradient24680"
       xlink:href="#linearGradient24674"
       gradientUnits="userSpaceOnUse"
       gradientTransform="matrix(0.9333026,0,0,0.93264192,-25.463395,10.523604)" />
    <radialGradient
       inkscape:collect="always"
       xlink:href="#linearGradient9512"
       id="radialGradient2584"
       gradientUnits="userSpaceOnUse"
       gradientTransform="matrix(1,0,0,0.98954003,4.67662e-7,2.6882853)"
       cx="257.5"
       cy="257"
       fx="257.5"
       fy="257"
       r="239" />
    <radialGradient
       inkscape:collect="always"
       xlink:href="#linearGradient9512"
       id="radialGradient3133"
       gradientUnits="userSpaceOnUse"
       gradientTransform="matrix(1,0,0,0.98954003,1.5000135,3.6882932)"
       cx="257.5"
       cy="257"
       fx="257.5"
       fy="257"
       r="239" />
    <radialGradient
       inkscape:collect="always"
       xlink:href="#linearGradient9512"
       id="radialGradient3185"
       gradientUnits="userSpaceOnUse"
       gradientTransform="matrix(1,0,0,0.98954,5.0000339e-7,2.6882853)"
       cx="257.5"
       cy="257"
       fx="257.5"
       fy="257"
       r="239" />
  </defs>
  <g
     style="display:none"
     id="layer3">
    <image
       xlink:href="C:\Student\a.GIF"
       x="-6.9410089e-006"
       y="2.4999819"
       width="524.4043"
       height="534.1886"
       style="opacity:0.73999993"
       id="image5744" />
  </g>
  <g
     style="display:none"
     id="layer6">
    <text
       x="123.8818"
       y="308.16385"
       transform="scale(0.917876,1.089471)"
       style="font-size:187.53746033px;font-style:normal;font-variant:normal;font-weight:normal;font-stretch:normal;text-align:start;line-height:125%;writing-mode:lr-tb;text-anchor:start;fill:black;fill-opacity:1;stroke:none;stroke-width:1px;stroke-linecap:butt;stroke-linejoin:miter;stroke-opacity:1;font-family:impact"
       id="text4117"
       xml:space="preserve"><tspan
         x="123.8818"
         y="308.16385"
         id="tspan4119">UML</tspan></text>
  </g>
  <g
     inkscape:groupmode="layer"
     id="layer1"
     inkscape:label="Logo">
    <path
       id="path1364"
       style="fill:url(#radialGradient3185);fill-opacity:1;fill-rule:evenodd;stroke:#000000;stroke-width:3.00000023999999987;stroke-linecap:butt;stroke-linejoin:miter;stroke-miterlimit:4;stroke-opacity:1;stroke-dasharray:none"
       d="m 510.52734,256 c 0,140.55647 -113.94354,254.49999 -254.50001,254.49999 C 115.47086,510.49999 1.5273231,396.55647 1.5273231,256 1.5273231,115.44353 115.47086,1.50001 256.02733,1.50001 396.5838,1.50001 510.52734,115.44353 510.52734,256 l 0,0 z"
       inkscape:connector-curvature="0" />
    <path
       id="path4080"
       style="fill:#7bedff;fill-opacity:0;fill-rule:evenodd;stroke:#000000;stroke-width:1.47000003000000001;stroke-linecap:butt;stroke-linejoin:miter;stroke-miterlimit:4;stroke-opacity:1;stroke-dasharray:none"
       d="m 440.85225,253.31954 c 0,99.68665 -82.76128,180.49865 -184.85252,180.49865 -102.09122,0 -184.852508,-80.812 -184.852508,-180.49865 0,-99.68666 82.761288,-180.498652 184.852508,-180.498652 102.09124,0 184.85252,80.811992 184.85252,180.498652 l 0,0 z"
       inkscape:connector-curvature="0" />
    <g
       id="layer8"
       transform="matrix(1.0714639,0,0,1.0722229,-19.901955,-19.561286)">
      <g
         style="display:inline"
         id="g5054">
        <path
           d="M 73.5,354.00735 70.45286,342.2778 58.771202,345.50368 67.405721,337 58.771202,328.49632 70.45286,331.7222 73.5,319.99265 76.54714,331.7222 88.228798,328.49632 79.594279,337 88.228798,345.50368 76.54714,342.2778 73.5,354.00735 z"
           transform="matrix(0.643007,0,0,0.643007,27.8024,131.5566)"
           style="fill:#000000;fill-opacity:0.99382719;stroke:#000000;stroke-width:0.93297219;stroke-miterlimit:4;stroke-opacity:1;stroke-dasharray:none"
           id="path4856"
           inkscape:connector-curvature="0" />
        <path
           d="M 73.5,354.00735 70.45286,342.2778 58.771202,345.50368 67.405721,337 58.771202,328.49632 70.45286,331.7222 73.5,319.99265 76.54714,331.7222 88.228798,328.49632 79.594279,337 88.228798,345.50368 76.54714,342.2778 73.5,354.00735 z"
           transform="matrix(0.643007,0,0,0.643007,391.9624,131.5566)"
           style="fill:#000000;fill-opacity:0.99382719;stroke:#000000;stroke-width:0.93297219;stroke-miterlimit:4;stroke-opacity:1;stroke-dasharray:none"
           id="path5733"
           inkscape:connector-curvature="0" />
        <g
           id="g5041">
          <g
             id="g5030">
            <g
               id="g5021">
              <g
                 transform="matrix(-0.941377,0.337359,-0.337359,-0.941377,585.2737,408.5435)"
                 style="font-size:41.09731674px;font-style:normal;font-variant:normal;font-weight:normal;font-stretch:normal;text-align:start;line-height:125%;writing-mode:lr-tb;text-anchor:start;font-family:arial"
                 id="text4972">
                <path
                   d="m 448.15293,257.88169 29.35319,1.95597 -1.31954,19.80239 -3.46392,-0.23082 1.06071,-15.918 -9.09028,-0.60574 -0.91795,13.77558 -3.46392,-0.23082 0.91795,-13.77558 -13.33508,-0.88859 0.25884,-3.88439"
                   style=""
                   id="path3243" />
                <path
                   d="m 447.09137,277.35564 26.50787,17.04135 -0.85246,4.10647 -31.25145,5.80946 0.9014,-4.34225 9.42125,-1.54887 2.50027,-12.04432 -8.0671,-4.97432 0.84022,-4.04752 m 10.10288,10.76657 -2.02713,9.76514 8.6012,-1.3502 c 2.61359,-0.41389 4.746,-0.68171 6.39723,-0.80347 -1.77081,-0.75018 -3.49723,-1.64827 -5.17926,-2.69425 l -7.79204,-4.91722"
                   style=""
                   id="path3245" />
                <path
                   d="m 440.49091,307.1777 27.61603,10.13861 -1.34168,3.65451 -13.69498,-5.02781 8.66026,18.74163 -1.81887,4.95431 -6.93633,-15.69317 -20.86641,6.06317 1.77045,-4.82244 17.58761,-4.70171 -2.74821,-6.13935 -9.56954,-3.51324 1.34167,-3.65451"
                   style=""
                   id="path3247" />
                <path
                   d="m 446.88335,364.15567 -1.89393,3.40126 -14.8498,-8.26889 c -2.58307,-1.43838 -4.47163,-2.8728 -5.66568,-4.30327 -1.19403,-1.43052 -1.84397,-3.17818 -1.94981,-5.24299 -0.10064,-2.04666 0.53892,-4.30892 1.91868,-6.78679 1.34073,-2.40777 2.85232,-4.14618 4.53477,-5.21522 1.68246,-1.06906 3.48903,-1.49479 5.41971,-1.2772 1.94236,0.22408 4.27521,1.09436 6.99856,2.61081 l 14.8498,8.26889 -1.89394,3.40125 -14.83226,-8.25912 c -2.23245,-1.24311 -3.99437,-1.95625 -5.28578,-2.13942 -1.28624,-0.16499 -2.49557,0.0957 -3.62801,0.78194 -1.13895,0.69795 -2.11519,1.77744 -2.92874,3.23847 -1.39279,2.50124 -1.81844,4.59934 -1.27696,6.29429 0.5415,1.69492 2.4252,3.44054 5.65113,5.23687 l 14.83226,8.25912"
                   style=""
                   id="path3249" />
                <path
                   d="m 415.58984,358.43472 23.50397,17.6918 -2.34121,3.11035 -20.7303,-15.60402 -8.71315,11.57562 -2.77366,-2.08778 11.05435,-14.68597"
                   style=""
                   id="path3251" />
                <path
                   d="m 398.26193,379.73158 18.77489,17.90906 6.68993,-7.01335 2.51203,2.39618 -16.09462,16.87271 -2.51203,-2.39618 6.71763,-7.0424 -18.77488,-17.90907 2.68705,-2.81695"
                   style=""
                   id="path3253" />
                <path
                   d="m 390.47431,388.28757 9.82268,29.94311 -3.25149,2.64907 -27.91591,-15.20215 3.43818,-2.80116 8.28799,4.74006 9.53667,-7.76975 -3.12294,-8.94814 3.20482,-2.61104 m 1.04955,14.72704 -7.73201,6.29946 7.52631,4.37702 c 2.28925,1.32722 4.11296,2.4643 5.47115,3.41125 -0.90105,-1.69902 -1.67437,-3.48481 -2.31996,-5.35739 l -2.94549,-8.73034"
                   style=""
                   id="path3255" />
                <path
                   d="m 358.66758,412.37814 13.78591,25.98816 -11.52271,6.11245 c -2.31636,1.22872 -4.20265,1.92647 -5.65888,2.09323 -1.44994,0.17851 -2.84883,-0.13191 -4.19666,-0.93128 -1.34782,-0.79943 -2.40102,-1.91412 -3.1596,-3.34409 -0.97798,-1.84367 -1.20555,-3.71435 -0.68273,-5.61205 0.52284,-1.89776 1.94017,-3.67938 4.25199,-5.34488 -1.14195,0.0454 -2.06214,-0.0192 -2.76057,-0.19385 -1.49352,-0.38896 -3.05613,-1.03656 -4.68782,-1.94281 l -8.27255,-4.67522 4.32545,-2.29452 6.30724,3.58249 c 1.83209,1.0271 3.29254,1.78189 4.38137,2.26438 1.08885,0.48245 1.98104,0.75121 2.67657,0.8063 0.68373,0.0613 1.32597,0.0159 1.92675,-0.13617 0.43389,-0.12417 1.09401,-0.42135 1.98037,-0.89152 l 3.98863,-2.11584 -6.12185,-11.54045 3.43909,-1.82433 m 4.26259,16.34296 -7.39227,3.92137 c -1.5718,0.83377 -2.71626,1.64531 -3.43336,2.43461 -0.71082,0.80108 -1.10861,1.67842 -1.19338,2.63203 -0.0785,0.96538 0.10483,1.86763 0.54993,2.70675 0.65201,1.22906 1.63711,2.00128 2.95532,2.31667 1.3064,0.3216 2.92278,-0.0285 4.84914,-1.05037 l 8.22545,-4.36334 -4.56083,-8.59772"
                   style=""
                   id="path3257" />
                <path
                   d="m 331.50365,425.77102 10.92817,27.31321 -3.61443,1.44615 -10.92817,-27.3132 3.61443,-1.44616"
                   style=""
                   id="path3259" />
                <path
                   d="m 324.65158,428.94775 -2.72842,31.39476 -4.0307,1.15897 -19.70079,-24.94558 4.26213,-1.22552 5.75995,7.61459 11.82211,-3.39927 0.64287,-9.45562 3.97285,-1.14233 m -4.81956,13.95562 -9.58497,2.75601 5.20209,6.98154 c 1.58393,2.11976 2.81442,3.8818 3.69148,5.28613 -0.16125,-1.91639 -0.17096,-3.86241 -0.0291,-5.83806 l 0.72052,-9.18562"
                   style=""
                   id="path3261" />
                <path
                   d="m 295.03491,437.0607 3.92287,29.15557 -10.04335,1.35133 c -2.26721,0.30502 -4.01618,0.39861 -5.24692,0.28077 -1.7223,-0.15976 -3.24125,-0.66406 -4.55686,-1.51291 -1.7128,-1.09243 -3.08354,-2.60206 -4.11225,-4.52891 -1.04013,-1.91186 -1.73503,-4.16711 -2.0847,-6.76577 -0.2979,-2.21419 -0.30338,-4.21124 -0.0165,-5.99116 0.28698,-1.77993 0.75903,-3.2878 1.41614,-4.52358 0.65895,-1.22255 1.42864,-2.22377 2.30908,-3.00366 0.86901,-0.76485 1.96401,-1.40489 3.28503,-1.92009 1.30779,-0.51343 2.84337,-0.88877 4.60674,-1.12604 l 10.52067,-1.41555 m -3.39531,3.95972 -6.22489,0.83756 c -1.92248,0.25867 -3.40324,0.64013 -4.44229,1.1444 -1.05228,0.50604 -1.85955,1.12761 -2.42183,1.8647 -0.79173,1.03792 -1.33605,2.35978 -1.63296,3.96557 -0.30834,1.62081 -0.31445,3.53168 -0.0183,5.73262 0.41033,3.04944 1.22902,5.32179 2.45607,6.81703 1.21562,1.51024 2.57684,2.44747 4.08367,2.81169 1.0877,0.25859 2.77841,0.23358 5.07213,-0.075 l 6.12545,-0.82418 -2.99701,-22.27438"
                   style=""
                   id="path3263" />
                <path
                   d="m 265.43673,440.48225 -0.38491,29.41577 -21.26925,-0.27831 0.0454,-3.47131 17.37658,0.22738 0.11789,-9.00933 -16.27299,-0.21294 0.0452,-3.45124 16.27299,0.21294 0.13102,-10.0126 -18.0588,-0.2363 0.0454,-3.47131 21.95147,0.28725"
                   style=""
                   id="path3265" />
                <path
                   d="m 238.08969,439.73947 -4.67746,29.04406 -3.94255,-0.63493 -11.58264,-25.26014 -3.67242,22.80335 -3.68499,-0.59346 4.67746,-29.04406 3.94255,0.63494 11.57945,25.27995 3.67561,-22.82316 3.68499,0.59345"
                   style=""
                   id="path3267" />
                <path
                   d="m 208.24209,434.03965 -7.69715,28.39348 -3.75739,-1.01858 7.69715,-28.39349 3.75739,1.01859"
                   style=""
                   id="path3269" />
                <path
                   d="m 200.86881,432.42704 -20.99183,23.50358 -3.9217,-1.48662 -0.83083,-31.77598 4.14686,1.57197 0.0505,9.54759 11.5024,4.36026 6.17919,-7.18608 3.86541,1.46528 m -12.21924,8.2872 -9.32576,-3.53515 -0.017,8.70652 c -0.002,2.64616 -0.0719,4.79417 -0.21088,6.44404 1.01891,-1.63107 2.17691,-3.19508 3.47401,-4.69203 l 6.0796,-6.92338"
                   style=""
                   id="path3271" />
                <path
                   d="m 168.9513,419.60587 -24.89581,19.32029 -3.58824,-2.17125 4.92875,-31.40239 3.79426,2.29591 -1.67678,9.39933 10.52435,6.3683 7.37674,-5.95027 3.53673,2.14008 m -13.51634,5.94105 -8.53278,-5.1632 -1.59104,8.55992 c -0.48005,2.60226 -0.9376,4.70215 -1.37265,6.29968 1.29705,-1.41993 2.71877,-2.74876 4.26517,-3.98649 l 7.2313,-5.70991"
                   style=""
                   id="path3273" />
                <path
                   d="m 135.33375,397.10536 -18.80751,22.62108 -2.99352,-2.48885 18.80752,-22.62108 2.99351,2.48885"
                   style=""
                   id="path3275" />
                <path
                   d="m 126.98415,390.37191 -21.17044,20.42666 -2.77279,-2.87375 5.89267,-27.15711 -16.621541,16.03758 -2.591651,-2.68602 21.170442,-20.42667 2.77278,2.87375 -5.9071,27.17105 16.63598,-16.05151 2.59165,2.68602"
                   style=""
                   id="path3277" />
                <path
                   d="m 106.67303,368.36428 -23.927847,17.11415 -11.545631,-16.14232 2.823682,-2.01961 9.280866,12.97588 7.410124,-5.30002 -8.031743,-11.22944 2.823682,-2.01961 8.031743,11.22944 10.870364,-7.77491 2.26476,3.16644"
                   style=""
                   id="path3279" />
                <path
                   d="m 80.067427,355.44039 c -4.360188,2.1982 -8.360905,2.74694 -12.002163,1.64621 -3.653153,-1.09472 -6.413227,-3.49367 -8.280231,-7.19686 -1.22253,-2.42498 -1.745276,-4.90315 -1.568238,-7.43449 0.177109,-2.53134 1.048971,-4.82866 2.615589,-6.89197 1.548715,-2.06921 3.637089,-3.7663 6.265129,-5.09126 2.66393,-1.343 5.31812,-2.00692 7.962578,-1.99179 2.644496,0.0152 5.007121,0.73427 7.087883,2.15725 2.068839,1.42905 3.6784,3.28438 4.828688,5.56601 1.246661,2.47278 1.763533,4.98387 1.550617,7.53327 -0.212906,2.54942 -1.099725,4.84679 -2.66046,6.89212 -1.560719,2.04533 -3.493848,3.64917 -5.799392,4.81151 m -1.752992,-3.61083 c 3.165641,-1.59596 5.234708,-3.70281 6.207207,-6.32055 0.954549,-2.62365 0.784401,-5.21965 -0.510442,-7.788 -1.318915,-2.61611 -3.322785,-4.30262 -6.011617,-5.05952 -2.694824,-0.76882 -5.732568,-0.30106 -9.113242,1.40329 -2.138265,1.07804 -3.818117,2.38189 -5.039561,3.91156 -1.239353,1.52377 -1.942749,3.2043 -2.11019,5.04159 -0.185346,1.83138 0.158595,3.61313 1.031824,5.34526 1.240663,2.46083 3.157803,4.15361 5.751425,5.07833 2.575704,0.9188 5.840567,0.38148 9.794596,-1.61196"
                   style=""
                   id="path3281" />
                <path
                   d="m 78.482996,319.04747 -28.121123,8.63935 -3.830546,-12.46844 c -0.770005,-2.50646 -1.099628,-4.49047 -0.98887,-5.95202 0.09804,-1.4576 0.666618,-2.77288 1.705744,-3.94585 1.039191,-1.17293 2.332452,-1.9971 3.879787,-2.4725 1.994977,-0.61287 3.875018,-0.4837 5.64013,0.38751 1.765157,0.87124 3.247637,2.59903 4.447443,5.18338 0.170664,-1.13004 0.407599,-2.02154 0.710803,-2.67452 0.663547,-1.39342 1.594124,-2.80592 2.791735,-4.2375 l 6.15095,-7.24283 1.437928,4.68046 -4.707304,5.51876 c -1.354077,1.6056 -2.370664,2.89758 -3.049766,3.87592 -0.679072,0.97838 -1.111217,1.8039 -1.296435,2.47657 -0.189115,0.65991 -0.265618,1.2992 -0.22951,1.91787 0.04015,0.44952 0.207544,1.15383 0.502185,2.11293 l 1.325958,4.316 12.487621,-3.83644 1.14327,3.72135 m -16.853502,1.10514 -2.457443,-7.99899 c -0.522505,-1.70081 -1.103736,-2.97773 -1.743695,-3.83078 -0.652702,-0.84909 -1.43932,-1.40515 -2.359853,-1.66818 -0.933274,-0.25906 -1.853901,-0.24913 -2.761885,0.0298 -1.329938,0.40861 -2.27403,1.23047 -2.832279,2.46558 -0.562118,1.22235 -0.522997,2.87575 0.117361,4.96021 l 2.734421,8.90054 9.303373,-2.85817"
                   style=""
                   id="path3283" />
                <path
                   d="m 70.120245,290.68131 -29.196136,3.60855 -0.718757,-5.81533 19.81816,-9.46571 c 1.846406,-0.87523 3.229525,-1.51797 4.149361,-1.92823 -1.103178,-0.20063 -2.727224,-0.52562 -4.872142,-0.97496 l -21.177804,-4.47962 -0.64245,-5.19795 29.196136,-3.60855 0.4603,3.7242 -24.43633,3.02026 25.484927,5.46375 0.430761,3.48521 -23.810881,11.51612 24.854555,-3.07194 0.4603,3.7242"
                   style=""
                   id="path3285" />
                <path
                   d="M 66.624861,259.67016 37.72587,247.1034 l 0.182441,-4.19004 29.914201,-10.74913 -0.192916,4.43062 -9.050606,3.04064 -0.535102,12.28946 8.760795,3.61531 -0.179822,4.1299 m -11.699682,-9.00583 0.433843,-9.96388 -8.273067,2.71295 c -2.513308,0.82793 -4.575103,1.43447 -6.185393,1.81962 1.868247,0.4563 3.71641,1.06571 5.544495,1.82822 l 8.480122,3.60309"
                   style=""
                   id="path3287" />
                <path
                   d="m 69.475413,224.69567 -25.526546,-4.65042 -1.737163,9.53544 -3.415385,-0.62222 4.179262,-22.94033 3.415384,0.62222 -1.744356,9.57492 25.526547,4.65042 -0.697743,3.82997"
                   style=""
                   id="path3289" />
                <path
                   d="m 73.435206,206.6702 -28.302784,-8.02425 1.061871,-3.74539 28.302784,8.02425 -1.061871,3.74539"
                   style=""
                   id="path3291" />
                <path
                   d="m 76.222883,196.44329 -27.288961,-10.98857 1.454149,-3.61123 13.532793,5.44931 -8.075987,-19.00071 1.971346,-4.89564 6.447253,15.90036 21.04409,-5.41438 -1.918877,4.76533 -17.724722,4.15506 2.556863,6.22147 9.456202,3.80777 -1.454149,3.61123"
                   style=""
                   id="path3293" />
                <path
                   d="m 91.201438,163.85746 -10.736303,-6.32647 -20.364945,1.15965 2.404262,-4.08014 10.585822,-0.49355 c 1.972549,-0.0799 3.90773,-0.0964 5.805551,-0.0495 -0.87721,-1.54173 -1.826467,-3.34332 -2.847773,-5.40478 l -4.558179,-9.30083 2.302386,-3.90725 8.649261,18.72238 10.736303,6.32647 -1.976385,3.35402"
                   style=""
                   id="path3295" />
              </g>
              <g
                 transform="matrix(0.995293,-0.09691524,0.09691524,0.995293,-23.67074,24.95741)"
                 style="font-size:40.92269516px;font-style:normal;font-variant:normal;font-weight:normal;font-stretch:normal;text-align:start;line-height:125%;writing-mode:lr-tb;text-anchor:start;font-family:arial"
                 id="text5040">
                <path
                   d="m 59.73981,363.32479 2.964394,-2.03685 23.96246,1.74253 c 1.701407,0.12395 3.229936,0.30205 4.585591,0.53431 l -9.256364,-13.47153 2.849113,-1.95764 11.88164,17.2923 -2.849113,1.95764 -26.061772,-2.04565 -2.703403,-0.3002 10.591633,15.41486 -2.849112,1.95764 -13.115067,-19.08741 m 34.059919,-9.0018 4.044449,-0.11212 2.308432,3.35964 -7.157345,-0.53705 -2.172643,-3.16202 2.167058,-6.72571 2.331064,3.39258 -1.521015,3.78468"
                   style=""
                   id="path3206" />
                <path
                   d="m 75.975949,386.14903 23.025334,-18.10887 2.396397,3.04701 -23.025332,18.10887 -2.396399,-3.04701"
                   style=""
                   id="path3208" />
                <path
                   d="m 82.491072,394.43005 21.810728,-19.55478 2.58774,2.88628 -19.236883,17.24715 9.630663,10.74171 -2.573844,2.30763 -12.218404,-13.62799"
                   style=""
                   id="path3210" />
                <path
                   d="m 98.567768,411.69878 20.445792,-20.97777 2.77605,2.70565 -20.44579,20.97777 -2.776052,-2.70565"
                   style=""
                   id="path3212" />
                <path
                   d="m 106.1167,419.23907 18.59469,-22.6348 3.07253,2.5241 -2.71056,27.53792 14.59924,-17.77126 2.87181,2.35922 -18.59469,22.6348 -3.07253,-2.5241 2.72325,-27.55336 -14.61193,17.7867 -2.87181,-2.35922"
                   style=""
                   id="path3214" />
                <path
                   d="m 133.21015,429.04796 3.2593,1.68832 c -0.63852,1.33023 -0.94666,2.56236 -0.92444,3.6964 0.0406,1.12993 0.46644,2.29909 1.27753,3.50749 0.8182,1.19716 1.93042,2.24162 3.33666,3.13339 1.24871,0.79188 2.4689,1.3054 3.66058,1.54056 1.19164,0.23515 2.22142,0.17836 3.08932,-0.17037 0.88625,-0.35286 1.57195,-0.91178 2.05709,-1.67676 0.49223,-0.77625 0.69528,-1.59392 0.60916,-2.45302 -0.079,-0.87036 -0.5112,-1.83057 -1.29646,-2.88066 -0.49968,-0.67966 -1.71452,-2.01003 -3.64452,-3.99111 -1.92291,-1.99233 -3.18658,-3.5193 -3.79104,-4.58092 -0.78886,-1.36781 -1.18685,-2.69282 -1.19397,-3.97505 0.0112,-1.28631 0.37715,-2.49758 1.09771,-3.63383 0.79188,-1.24871 1.88463,-2.18834 3.27826,-2.81889 1.40073,-0.64176 2.96007,-0.81228 4.67802,-0.51157 1.71791,0.30076 3.40936,0.97906 5.07436,2.03489 1.83369,1.16288 3.25898,2.48475 4.27588,3.9656 1.03522,1.47677 1.56587,3.02788 1.59196,4.65334 0.026,1.62547 -0.39297,3.18165 -1.25699,4.66854 l -3.28852,-1.75417 c 0.82287,-1.67073 0.99821,-3.2158 0.52603,-4.63521 -0.46099,-1.41226 -1.64207,-2.72123 -3.54327,-3.92691 -1.97999,-1.25559 -3.65745,-1.80671 -5.03238,-1.65335 -1.35658,0.14927 -2.35947,0.73577 -3.00866,1.75948 -0.56361,0.88875 -0.70671,1.82331 -0.4293,2.80368 0.26614,0.97327 1.53407,2.60546 3.8038,4.8966 2.28807,2.28703 3.78443,3.96944 4.48907,5.04723 1.01904,1.57691 1.54708,3.09482 1.58414,4.55374 0.0441,1.44766 -0.35469,2.83523 -1.19649,4.16271 -0.83471,1.31622 -1.9999,2.32033 -3.49557,3.01234 -1.48857,0.68073 -3.14847,0.8979 -4.97971,0.6515 -1.81289,-0.25054 -3.60243,-0.93583 -5.36864,-2.05588 -2.23872,-1.4197 -3.91055,-2.93734 -5.01549,-4.55293 -1.0937,-1.60847 -1.65988,-3.33985 -1.69855,-5.19416 -0.0203,-1.85842 0.47141,-3.62875 1.47513,-5.31102"
                   style=""
                   id="path3216" />
                <path
                   d="m 152.43466,451.96116 12.58387,-26.45267 3.50055,1.66526 -6.24043,13.11807 19.37655,-6.86906 4.7456,2.25755 -16.19592,5.43915 4.09924,21.24527 -4.61929,-2.19745 -3.04984,-17.86948 -6.3392,2.16221 -4.36057,9.1664 -3.50056,-1.66525"
                   style=""
                   id="path3218" />
                <path
                   d="m 174.3863,462.41334 19.92772,-24.23922 3.96233,1.31931 2.121,31.58063 -4.18983,-1.39505 -0.43916,-9.49701 -11.62155,-3.86955 -5.85506,7.40126 -3.90545,-1.30037 m 11.81955,-8.74283 9.42237,3.1373 -0.33778,-8.66295 c -0.10621,-2.63278 -0.12377,-4.77274 -0.0527,-6.41988 -0.94728,1.66428 -2.03569,3.26751 -3.26521,4.80969 l -5.76669,7.13584 m 8.31609,-17.32259 4.28897,-4.46882 4.4742,1.48975 -5.93836,3.91963 -2.82481,-0.94056"
                   style=""
                   id="path3220" />
                <path
                   d="m 237.70089,447.91081 3.83869,0.5399 -2.35717,16.75962 c -0.41005,2.91529 -1.06544,5.18399 -1.96617,6.8061 -0.90078,1.62211 -2.29126,2.85249 -4.17144,3.69114 -1.86517,0.8273 -4.19603,1.0443 -6.99258,0.65097 -2.71744,-0.38219 -4.87431,-1.1631 -6.47065,-2.34273 -1.59634,-1.17963 -2.63957,-2.70522 -3.12967,-4.57676 -0.48825,-1.88472 -0.51623,-4.36388 -0.0839,-7.43747 l 2.35716,-16.75962 3.83869,0.53989 -2.35438,16.73983 c -0.35437,2.51956 -0.38512,4.41201 -0.0923,5.67735 0.3079,1.25402 0.98363,2.28399 2.02719,3.08992 1.05672,0.80779 2.40955,1.32764 4.05848,1.55955 2.82294,0.39704 4.9246,0.0402 6.305,-1.07054 1.38035,-1.11072 2.32657,-3.48649 2.83866,-7.12731 l 2.35438,-16.73984"
                   style=""
                   id="path3222" />
                <path
                   d="m 243.90743,477.97282 -0.17853,-29.29275 3.9763,-0.0242 15.52586,22.90484 -0.14017,-22.99861 3.71655,-0.0226 0.17852,29.29275 -3.9763,0.0242 -15.52598,-22.92482 0.14029,23.01859 -3.71654,0.0226"
                   style=""
                   id="path3224" />
                <path
                   d="m 274.14645,476.88846 -3.22613,-29.11511 3.85289,-0.42692 3.22613,29.1151 -3.85289,0.42693"
                   style=""
                   id="path3226" />
                <path
                   d="m 293.00264,474.12549 -16.86246,-26.50603 4.11505,-0.82112 11.63015,19.37943 c 0.93458,1.55224 1.75033,3.01952 2.44727,4.40183 0.13135,-1.65626 0.33455,-3.32686 0.60962,-5.01181 l 3.59554,-22.41759 3.8799,-0.7742 -5.51557,30.97137 -3.8995,0.77812"
                   style=""
                   id="path3228" />
                <path
                   d="m 311.60756,470.01341 -9.00151,-27.87598 20.15589,-6.50859 1.06225,3.28959 -16.46698,5.3174 2.75694,8.53773 15.42116,-4.97969 1.05611,3.27058 -15.42116,4.97969 3.06396,9.48848 17.11349,-5.52616 1.06225,3.28959 -20.8024,6.71736"
                   style=""
                   id="path3230" />
                <path
                   d="m 337.51841,461.31558 -12.21033,-26.62714 11.80603,-5.41386 c 2.37331,-1.08829 4.28857,-1.67346 5.74578,-1.75552 1.45163,-0.0941 2.82441,0.29492 4.11832,1.16704 1.29389,0.8722 2.27677,2.04086 2.94866,3.50599 0.8662,1.88899 0.98489,3.7617 0.35606,5.61813 -0.62887,1.85648 -2.14025,3.54609 -4.53416,5.06884 1.13782,0.0205 2.04885,0.13762 2.73311,0.35141 1.46234,0.47252 2.97847,1.20614 4.54842,2.20084 l 7.95487,5.12319 -4.4318,2.03228 -6.064,-3.92393 c -1.76221,-1.12636 -3.17064,-1.96066 -4.22529,-2.50289 -1.05468,-0.5422 -1.92615,-0.86067 -2.6144,-0.95541 -0.67616,-0.10026 -1.31722,-0.0921 -1.92318,0.0246 -0.43847,0.0985 -1.11177,0.35596 -2.01993,0.77239 l -4.0867,1.87403 5.42219,11.8242 -3.52365,1.61582 m -3.29781,-16.49143 7.57402,-3.4732 c 1.61046,-0.73848 2.7948,-1.47942 3.55305,-2.22283 0.75267,-0.75548 1.19855,-1.60476 1.33764,-2.54787 0.13352,-0.95516 0.003,-1.86261 -0.39106,-2.72236 -0.57749,-1.25928 -1.51238,-2.08358 -2.80466,-2.47289 -1.2802,-0.39481 -2.90715,-0.13968 -4.88087,0.76537 l -8.42769,3.86466 4.03957,8.80912"
                   style=""
                   id="path3232" />
                <path
                   d="m 362.14325,449.78146 -1.8591,-3.07898 3.14788,-23.81862 c 0.22373,-1.69118 0.49136,-3.2066 0.8029,-4.54626 l -13.99227,8.44859 -1.78681,-2.95925 17.96074,-10.84476 1.78681,2.95924 -3.57387,25.89649 -0.45857,2.68109 16.01072,-9.66734 1.7868,2.95925 -19.82523,11.97055"
                   style=""
                   id="path3234" />
                <path
                   d="m 385.83173,434.83824 -16.99783,-23.85731 3.15711,-2.24937 16.99783,23.85731 -3.15711,2.24937"
                   style=""
                   id="path3236" />
                <path
                   d="m 400.27907,423.86945 -16.48554,-19.89344 -7.43119,6.15818 -2.20573,-2.66169 17.87794,-14.81532 2.20573,2.66169 -7.46197,6.18368 16.48555,19.89343 -2.98479,2.47347"
                   style=""
                   id="path3238" />
                <path
                   d="m 409.26862,416.69061 -13.00393,-28.55787 2.92761,-2.97822 29.29482,11.98534 -3.09569,3.14921 -8.72223,-3.78268 -8.58669,8.73513 4.07168,8.51362 -2.88557,2.93547 m -2.65316,-14.46028 6.96181,-7.08216 -7.9286,-3.50689 c -2.41116,-1.06259 -4.34074,-1.98804 -5.78874,-2.77635 1.07802,1.58275 2.03913,3.26537 2.88335,5.04788 l 3.87218,8.31752"
                   style=""
                   id="path3240" />
              </g>
            </g>
            <path
               d="m 495,257 a 237.5,235 0 1 1 -475,0 237.5,235 0 1 1 475,0 z"
               transform="matrix(0.80202,0,0,0.790901,50.97968,51.23866)"
               style="opacity:0;fill:#000000;fill-opacity:0;fill-rule:evenodd;stroke:#0000f9;stroke-width:1.90122461;stroke-linecap:butt;stroke-linejoin:miter;stroke-miterlimit:4;stroke-opacity:0.7962963;stroke-dasharray:none;display:inline"
               id="path1385"
               inkscape:connector-curvature="0" />
          </g>
          <path
             d="m 59.5,362.5 c 57,91 139.37882,115.40398 195.18941,115.40398 C 307.5,477.90398 394.5,453.5 451,367"
             style="opacity:0;fill:none;stroke:#000000;stroke-width:0.93297219px;stroke-linecap:butt;stroke-linejoin:miter;stroke-opacity:1"
             id="path2278"
             inkscape:connector-curvature="0" />
        </g>
      </g>
    </g>
    <g
       style="display:inline"
       id="layer4"
       transform="matrix(1.0715483,0,0,1.0722229,-19.909135,-19.561286)">
      <path
         d="m 211.04435,92.436455 c -23.20967,6.177334 -43.30174,15.992875 -57.03584,26.877345 -6.86704,5.44224 -12.14615,11.16067 -15.43663,16.85982 -3.29048,5.69915 -4.58483,11.44446 -3.38322,16.81449 1.20161,5.37002 4.7665,9.77183 10.09423,13.17721 5.32772,3.40538 12.42867,5.82882 20.8224,7.20935 16.78745,2.76106 38.76667,1.37918 61.97632,-4.79815 23.20966,-6.17733 43.26207,-15.98231 56.99616,-26.86679 6.86705,-5.44223 12.18582,-11.17123 15.47631,-16.87038 3.29049,-5.69915 4.59543,-11.39708 3.39382,-16.7671 -1.20161,-5.37003 -4.7771,-9.819216 -10.10483,-13.224598 -5.32773,-3.405387 -12.46835,-5.818261 -20.86207,-7.19879 -16.78745,-2.761056 -38.727,-1.389734 -61.93665,4.787593 z m 0.24384,1.089746 c 23.11964,-6.153369 45.00313,-7.544362 61.63775,-4.808444 8.31731,1.367958 15.32332,3.783436 20.5023,7.093737 5.17898,3.310301 8.49147,7.517206 9.60723,12.503596 1.11577,4.98639 -0.0581,10.33715 -3.25668,15.87717 -3.19862,5.54003 -8.39682,11.2037 -15.20135,16.59639 -13.60907,10.78539 -33.62003,20.54475 -56.73967,26.69812 -23.11964,6.15337 -45.00313,7.54437 -61.63776,4.80845 -8.31731,-1.36797 -15.32332,-3.78344 -20.5023,-7.09374 -5.17898,-3.3103 -8.52053,-7.45927 -9.63629,-12.44566 -1.11577,-4.98639 0.0871,-10.39509 3.28575,-15.93511 3.19861,-5.54003 8.39682,-11.2037 15.20135,-16.59639 13.60907,-10.78538 33.62003,-20.544747 56.73967,-26.698119 z"
         style="fill:#000000;fill-opacity:1;stroke:none"
         id="path6628"
         inkscape:connector-curvature="0" />
      <path
         d="m 121.62236,151.022 c -22.627414,29.69849 -9.19238,49.85102 10.96016,56.56854 20.15254,6.71751 54.44722,12.37437 100.76271,0 46.31549,-12.37437 92.98455,-38.18377 108.18734,-64.34672 15.2028,-26.16295 -11.31372,-42.07285 -21.92031,-45.961936"
         style="fill:none;stroke:#000000;stroke-width:0.93293548px;stroke-linecap:butt;stroke-linejoin:miter;stroke-opacity:1"
         id="path11030"
         inkscape:connector-curvature="0" />
      <path
         d="m 97.22718,192.03419 c -18.738329,45.60839 20.15254,62.9325 67.17514,65.05382 43.81886,1.97679 121.61463,-11.30781 177.83736,-54.09366 56.21498,-42.77997 38.89086,-68.94292 17.32411,-84.14571"
         style="fill:none;stroke:#000000;stroke-width:0.93293548px;stroke-linecap:butt;stroke-linejoin:miter;stroke-opacity:1"
         id="path11910"
         inkscape:connector-curvature="0" />
      <path
         d="m 86.620578,231.98572 c -7.071067,47.72971 22.182832,61.13933 77.178192,66.82159 65.74504,6.79295 155.80113,-23.71963 202.12898,-60.81118 45.95523,-36.79322 47.0226,-60.81118 31.64303,-82.02439"
         style="fill:none;stroke:#000000;stroke-width:0.93293548px;stroke-linecap:butt;stroke-linejoin:miter;stroke-opacity:1"
         id="path11912"
         inkscape:connector-curvature="0" />
      <path
         d="M 90.999998,298.87501 C 102.75,337.5 157.00625,345.75666 223.99999,339.875 c 65.22672,-5.76958 136.25,-43.87499 159.75,-61.87499 23.5,-18 49.5,-47 37,-78"
         style="fill:none;stroke:#000000;stroke-width:0.93293548px;stroke-linecap:butt;stroke-linejoin:miter;stroke-opacity:1"
         id="path11914"
         inkscape:connector-curvature="0" />
      <path
         d="m 109.04089,340.3195 c 19.2132,29.30204 51.33326,36.87311 104.04825,35.35534 56.21969,-1.61104 121.88289,-24.96976 166.9593,-55.11511 46.02628,-30.78059 50.22603,-55.1721 49.87247,-74.61753"
         style="fill:none;stroke:#000000;stroke-width:0.93293548px;stroke-linecap:butt;stroke-linejoin:miter;stroke-opacity:1"
         id="path11916"
         inkscape:connector-curvature="0" />
      <path
         d="m 142.83557,380.30136 c 30.9264,27.37526 98.96911,30.14773 168.34686,6.24785 72.56722,-25.06248 106.03569,-57.48275 114.31906,-93.0452"
         style="fill:none;stroke:#000000;stroke-width:0.93293548px;stroke-linecap:butt;stroke-linejoin:miter;stroke-opacity:1"
         id="path11918"
         inkscape:connector-curvature="0" />
      <path
         d="m 200.77817,413.68198 c 35.32753,10.6967 82.4224,1.45588 106.22182,-5.93198 30.20702,-9.37692 75.83579,-31.77513 92.83579,-58.02513"
         style="fill:none;stroke:#000000;stroke-width:0.93293548px;stroke-linecap:butt;stroke-linejoin:miter;stroke-opacity:1"
         id="path11920"
         inkscape:connector-curvature="0" />
      <path
         d="m 218.99999,90.500011 c 0,0 -8.95989,5.183163 -1.51777,75.125629 4.36652,41.03739 15.8384,98.29469 25.69874,137.10353 9.86034,38.80883 26.54537,83.31179 33.48585,97.25351 9.4368,18.95624 15.01473,19.29795 15.01473,19.29795"
         style="fill:none;stroke:#000000;stroke-width:0.93293548px;stroke-linecap:butt;stroke-linejoin:miter;stroke-opacity:1"
         id="path11922"
         inkscape:connector-curvature="0" />
      <path
         d="m 263.87867,86.146458 c -42.84835,1.5 -77.90044,43.502892 -94.87867,123.353552 -17.42327,81.94379 4.49923,156.22149 31.38387,186.82321 22.58059,25.72703 42.15076,25.82323 42.15076,25.82323"
         style="fill:none;stroke:#000000;stroke-width:0.93293548px;stroke-linecap:butt;stroke-linejoin:miter;stroke-opacity:1"
         id="path11924"
         inkscape:connector-curvature="0" />
      <path
         d="m 347.24999,110.75001 c -69.5,-35.749999 -127.88247,-3.9966 -138.75,2 -29.15416,16.08699 -70.99628,51.37657 -89.24999,99.5 -16.5,43.5 -26.875002,128.15624 36.125,178.15624"
         style="fill:none;stroke:#000000;stroke-width:0.93293548px;stroke-linecap:butt;stroke-linejoin:miter;stroke-opacity:1"
         id="path11926"
         inkscape:connector-curvature="0" />
      <path
         d="m 139.88388,131.64646 c 14.875,-13.625 40.39755,-21.95173 68.23074,-22.20885 27.83319,-0.25711 57.97702,7.55539 89.51925,26.20885 57.58802,34.11349 97.90153,94.5374 107.61612,139.85355 14.93985,69.69066 -29.75,101.74999 -29.75,101.74999"
         style="fill:none;stroke:#000000;stroke-width:0.93293548px;stroke-linecap:butt;stroke-linejoin:miter;stroke-opacity:1"
         id="path11930"
         inkscape:connector-curvature="0" />
      <path
         d="m 338.37499,403 c 12.5,-7 15.125,-35.5 6.625,-73.5 -8.5,-37.99999 -39.34231,-130.07366 -102.61612,-196.53032 -38.30646,-40.251183 -56.99999,-31.5 -56.99999,-31.5"
         style="fill:none;stroke:#000000;stroke-width:0.93293548px;stroke-linecap:butt;stroke-linejoin:miter;stroke-opacity:1"
         id="path11932"
         inkscape:connector-curvature="0" />
    </g>
    <g
       style="display:inline"
       id="layer5"
       transform="matrix(1.0714639,0,0,1.0722229,-19.901955,-19.561286)">
      <flowRoot
         style="font-size:150px;font-style:normal;font-variant:normal;font-weight:normal;font-stretch:normal;text-align:start;line-height:125%;writing-mode:lr-tb;text-anchor:start;font-family:impact"
         id="flowRoot3212"
         xml:space="preserve"><flowRegion
           id="flowRegion3214"><rect
             width="94.752312"
             height="104.6518"
             x="-123.03658"
             y="179.65982"
             style="font-size:150px;font-style:normal;font-variant:normal;font-weight:normal;font-stretch:normal;text-align:start;line-height:125%;writing-mode:lr-tb;text-anchor:start;font-family:impact"
             id="rect3216" /></flowRegion><flowPara
           id="flowPara3218">UML</flowPara></flowRoot>      <g
         style="fill:#00123c;fill-opacity:1"
         id="g7716">
        <g
           transform="matrix(1.253829,0,0,1.301703,757.1703,67.47622)"
           style="font-size:150px;font-style:normal;font-variant:normal;font-weight:normal;font-stretch:normal;text-align:start;line-height:125%;writing-mode:lr-tb;text-anchor:start;font-family:impact"
           id="flowRoot4093">
          <path
             d="m -449.84863,103.02621 0,79.24804 c -8e-5,8.98441 -0.29305,15.30765 -0.87891,18.96973 -0.58601,3.6133 -2.31941,7.34865 -5.20019,11.20606 -2.88093,3.80859 -6.68952,6.71387 -11.42579,8.71582 -4.68755,1.95312 -10.22954,2.92968 -16.62597,2.92968 -7.08012,0 -13.33011,-1.17187 -18.75,-3.51562 -5.41994,-2.34375 -9.47267,-5.3955 -12.15821,-9.15527 -2.68555,-3.75976 -4.27246,-7.71483 -4.76074,-11.86524 -0.48828,-4.19919 -0.73243,-12.98825 -0.73242,-26.36719 l 0,-70.16601 30.83496,0 0,88.91601 c -3e-5,5.17581 0.26852,8.49612 0.80567,9.96094 0.5859,1.41603 1.73335,2.12404 3.44238,2.12402 1.95308,2e-5 3.1982,-0.78123 3.73535,-2.34375 0.58589,-1.6113 0.87886,-5.37106 0.87891,-11.27929 l 0,-87.37793 30.83496,0"
             style="fill:#8f1414"
             id="path3188" />
        </g>
        <g
           transform="scale(0.889872,1.123758)"
           style="font-size:76.13917542px;font-style:normal;font-variant:normal;font-weight:normal;font-stretch:normal;text-align:start;line-height:125%;writing-mode:lr-tb;text-anchor:start;fill:#00123c;stroke:none;font-family:arial black"
           id="text4109">
          <path
             d="m 207.72428,327.33714 16.17214,0 0,15.16835 -16.17214,0 0,-15.16835"
             style="line-height:125%;fill:#00123c;font-family:arial black"
             id="path3197" />
          <path
             d="m 234.19454,288.00352 41.63861,0 0,11.71086 -24.72293,0 0,9.5174 21.11673,0 0,11.00449 -21.11673,0 0,22.26922 -16.91568,0 0,-54.50197"
             style="line-height:125%;fill:#00123c;font-family:arial black"
             id="path3199" />
          <path
             d="m 285.20184,342.50549 0,-54.50197 28.06889,0 c 5.20478,6e-5 9.18275,0.44619 11.93392,1.33839 2.75107,0.89231 4.96932,2.55289 6.65474,4.98176 1.68532,2.40418 2.528,5.34119 2.52806,8.81103 -6e-5,3.02379 -0.64446,5.63859 -1.93322,7.84442 -1.28887,2.1811 -3.06099,3.95321 -5.31636,5.31635 -1.43757,0.8675 -3.40797,1.58626 -5.9112,2.15629 2.00754,0.66921 3.46984,1.33841 4.38693,2.00758 0.61957,0.44615 1.51183,1.40036 2.67677,2.86265 1.18962,1.46233 1.98274,2.59004 2.37935,3.38314 l 8.14183,15.80036 -19.03479,0 -8.99692,-16.65544 c -1.14013,-2.15627 -2.15631,-3.55661 -3.04854,-4.20104 -1.21448,-0.84266 -2.59004,-1.26401 -4.12668,-1.26403 l -1.48709,0 0,22.12051 -16.91569,0 m 16.91569,-32.41863 7.10087,0 c 0.7683,3e-5 2.25539,-0.24782 4.46128,-0.74355 1.11528,-0.22303 2.01993,-0.79308 2.71394,-1.71015 0.71873,-0.91701 1.07811,-1.97037 1.07814,-3.16008 -3e-5,-1.75968 -0.55769,-3.11046 -1.67298,-4.05233 -1.11535,-0.94178 -3.20967,-1.41269 -6.28297,-1.41273 l -7.39828,0 0,11.07884"
             style="line-height:125%;fill:#00123c;font-family:arial black"
             id="path3201" />
          <path
             d="m 344.83428,288.00352 16.87851,0 0,54.50197 -16.87851,0 0,-54.50197"
             style="line-height:125%;fill:#00123c;font-family:arial black"
             id="path3203" />
        </g>
        <g
           transform="scale(0.881059,1.134998)"
           style="font-size:204.29974365px;font-style:normal;font-variant:normal;font-weight:normal;font-stretch:normal;text-align:start;line-height:125%;writing-mode:lr-tb;text-anchor:start;stroke:none;font-family:impact"
           id="text4113">
          <path
             d="m 367.02569,102.69707 0,161.50453 -36.71011,0 0,-109.03302 -14.6641,109.03302 -26.03624,0 -15.46214,-106.53913 0,106.53913 -36.71011,0 0,-161.50453 54.36687,0 c 1.59603,9.70971 3.29188,21.14835 5.08755,34.31597 l 5.78583,41.09936 9.57655,-75.41533 54.7659,0"
             style="fill:#ad6e00"
             id="path3191" />
        </g>
        <g
           transform="matrix(1.253829,0,0,1.301703,990.5611,68.573)"
           style="font-size:150px;font-style:normal;font-variant:normal;font-weight:normal;font-stretch:normal;text-align:start;line-height:125%;writing-mode:lr-tb;text-anchor:start;fill:#231287;display:inline;font-family:impact"
           id="flowRoot23785">
          <path
             d="m -489.10645,103.02621 0,94.84863 18.75,0 0,23.73047 -49.58496,0 0,-118.5791 30.83496,0"
             style="fill:#231287"
             id="path3194" />
        </g>
      </g>
    </g>
  </g>
</svg>
